<svg id="Layer_1" data-name="Layer 1" xmlns="http://www.w3.org/2000/svg" viewBox="0 0 14.72 6.13"><defs><style>.cls-1{fill:#fff;}.cls-2{fill-rule:evenodd;}</style></defs><rect class="cls-1" width="14.72" height="6.13"/><g id="A"><path class="cls-2" d="M2019.11,451.58h-.57l1-3h.55l1,3h-.57l-.73-2.2Zm.72-2.2c-.23.71-.11.35,0,0m6.61,2.25a.77.77,0,0,0,.6-.28v.15a.07.07,0,0,0,.07.08h.46v-3H2027v1.16a.8.8,0,0,0-.59-.24,1,1,0,0,0-1,1.08A1,1,0,0,0,2026.44,451.63Zm.11-.53a.53.53,0,0,1-.53-.56.53.53,0,0,1,.53-.55.56.56,0,0,1,0,1.11Zm2.19.53a.75.75,0,0,0,.59-.28v.15a.08.08,0,0,0,.08.08h.46v-2.07h-.46a.09.09,0,0,0-.08.08v.12a.78.78,0,0,0-.58-.24,1,1,0,0,0-1,1.08A1,1,0,0,0,2028.74,451.63Zm.11-.53a.53.53,0,0,1-.53-.56.53.53,0,0,1,.53-.55.56.56,0,0,1,0,1.11Zm-6.35-1.67a.85.85,0,0,0-.68.31v-.15a.08.08,0,0,0-.08-.08h-.4v2.08h.55V450.5c0-.37.17-.59.45-.59s.41.19.41.55v1.13h.56v-1.16C2023.31,449.65,2022.91,449.43,2022.5,449.43Zm1.26,3.17h.41a.2.2,0,0,0,.19-.14l1.12-3h-.57l-.47,1.31-.49-1.31h-.58l.8,2Zm7.11,0h-.41l.41-1.07-.8-2h.58l.5,1.3.46-1.3h.57l-1.12,3A.2.2,0,0,1,2030.87,452.6Z" transform="translate(-2017.47 -447.25)"/></g><g id="wave"><path class="cls-2" d="M2018.87,450.64a.69.69,0,0,0-.46-.17.78.78,0,0,0-.54.23l-.36-.38a1.3,1.3,0,0,1,.9-.4,1.18,1.18,0,0,1,.63.18c.22.15.27.31.53.4a1,1,0,0,0,.31.05,1.13,1.13,0,0,0,.36-.1,2.08,2.08,0,0,0,.24-.15l.18.56a2.63,2.63,0,0,1-.3.12,1.46,1.46,0,0,1-.51.12,1.22,1.22,0,0,1-.54-.13A1.31,1.31,0,0,1,2018.87,450.64Z" transform="translate(-2017.47 -447.25)"/></g></svg>